<?xml version="1.0" encoding="UTF-8" standalone="no"?>
<!DOCTYPE svg PUBLIC "-//W3C//DTD SVG 1.1//EN"
 "http://www.w3.org/Graphics/SVG/1.1/DTD/svg11.dtd">
<!-- Generated by graphviz version 2.38.0 (20140413.2041)
 -->
<!-- Title: controllers_diagram Pages: 1 -->
<svg width="456pt" height="581pt"
 viewBox="0.00 0.00 456.00 581.50" xmlns="http://www.w3.org/2000/svg" xmlns:xlink="http://www.w3.org/1999/xlink">
<g id="graph0" class="graph" transform="scale(1 1) rotate(0) translate(76 362)">
<title>controllers_diagram</title>
<polygon fill="none" stroke="none" points="-76,219.5 -76,-362 380,-362 380,219.5 -76,219.5"/>
<!-- _diagram_info -->
<g id="node1" class="node"><title>_diagram_info</title>
<text text-anchor="start" x="170" y="-225.6" font-family="Times,serif" font-size="13.00">Controllers diagram</text>
<text text-anchor="start" x="170" y="-211.6" font-family="Times,serif" font-size="13.00">Date: Oct 08 2018 &#45; 11:42</text>
<text text-anchor="start" x="170" y="-197.6" font-family="Times,serif" font-size="13.00">Migration version: 20181007155038</text>
<text text-anchor="start" x="170" y="-183.6" font-family="Times,serif" font-size="13.00">Generated by RailRoady 1.5.3</text>
<text text-anchor="start" x="170" y="-169.6" font-family="Times,serif" font-size="13.00">http://railroady.prestonlee.com</text>
</g>
<!-- GamelistsController -->
<g id="node2" class="node"><title>GamelistsController</title>
<path fill="none" stroke="black" d="M102.5,89.5C102.5,89.5 205.5,89.5 205.5,89.5 211.5,89.5 217.5,83.5 217.5,77.5 217.5,77.5 217.5,-111.5 217.5,-111.5 217.5,-117.5 211.5,-123.5 205.5,-123.5 205.5,-123.5 102.5,-123.5 102.5,-123.5 96.5,-123.5 90.5,-117.5 90.5,-111.5 90.5,-111.5 90.5,77.5 90.5,77.5 90.5,83.5 96.5,89.5 102.5,89.5"/>
<text text-anchor="middle" x="154" y="-108.3" font-family="Times,serif" font-size="14.00">GamelistsController</text>
<polyline fill="none" stroke="black" points="90.5,-100.5 217.5,-100.5 "/>
<text text-anchor="start" x="98.5" y="-85.3" font-family="Times,serif" font-size="14.00">create</text>
<text text-anchor="start" x="98.5" y="-70.3" font-family="Times,serif" font-size="14.00">destroy</text>
<text text-anchor="start" x="98.5" y="-55.3" font-family="Times,serif" font-size="14.00">edit</text>
<text text-anchor="start" x="98.5" y="-40.3" font-family="Times,serif" font-size="14.00">index</text>
<text text-anchor="start" x="98.5" y="-25.3" font-family="Times,serif" font-size="14.00">new</text>
<text text-anchor="start" x="98.5" y="-10.3" font-family="Times,serif" font-size="14.00">show</text>
<text text-anchor="start" x="98.5" y="4.7" font-family="Times,serif" font-size="14.00">update</text>
<polyline fill="none" stroke="black" points="90.5,12.5 217.5,12.5 "/>
<polyline fill="none" stroke="black" points="90.5,36.5 217.5,36.5 "/>
<text text-anchor="start" x="98.5" y="51.7" font-family="Times,serif" font-size="14.00">_layout</text>
<text text-anchor="start" x="98.5" y="66.7" font-family="Times,serif" font-size="14.00">gamelist_params</text>
<text text-anchor="start" x="98.5" y="81.7" font-family="Times,serif" font-size="14.00">set_gamelist</text>
</g>
<!-- ApplicationController -->
<g id="node3" class="node"><title>ApplicationController</title>
<path fill="none" stroke="black" d="M102,215C102,215 214,215 214,215 220,215 226,209 226,203 226,203 226,133 226,133 226,127 220,121 214,121 214,121 102,121 102,121 96,121 90,127 90,133 90,133 90,203 90,203 90,209 96,215 102,215"/>
<text text-anchor="middle" x="158" y="136.2" font-family="Times,serif" font-size="14.00">ApplicationController</text>
<polyline fill="none" stroke="black" points="90,144 226,144 "/>
<polyline fill="none" stroke="black" points="90,168 226,168 "/>
<polyline fill="none" stroke="black" points="90,192 226,192 "/>
<text text-anchor="start" x="98" y="207.2" font-family="Times,serif" font-size="14.00">_layout</text>
</g>
<!-- GamesController -->
<g id="node4" class="node"><title>GamesController</title>
<path fill="none" stroke="black" d="M-42,-144.5C-42,-144.5 44,-144.5 44,-144.5 50,-144.5 56,-150.5 56,-156.5 56,-156.5 56,-345.5 56,-345.5 56,-351.5 50,-357.5 44,-357.5 44,-357.5 -42,-357.5 -42,-357.5 -48,-357.5 -54,-351.5 -54,-345.5 -54,-345.5 -54,-156.5 -54,-156.5 -54,-150.5 -48,-144.5 -42,-144.5"/>
<text text-anchor="middle" x="1" y="-342.3" font-family="Times,serif" font-size="14.00">GamesController</text>
<polyline fill="none" stroke="black" points="-54,-334.5 56,-334.5 "/>
<text text-anchor="start" x="-46" y="-319.3" font-family="Times,serif" font-size="14.00">create</text>
<text text-anchor="start" x="-46" y="-304.3" font-family="Times,serif" font-size="14.00">destroy</text>
<text text-anchor="start" x="-46" y="-289.3" font-family="Times,serif" font-size="14.00">edit</text>
<text text-anchor="start" x="-46" y="-274.3" font-family="Times,serif" font-size="14.00">index</text>
<text text-anchor="start" x="-46" y="-259.3" font-family="Times,serif" font-size="14.00">new</text>
<text text-anchor="start" x="-46" y="-244.3" font-family="Times,serif" font-size="14.00">show</text>
<text text-anchor="start" x="-46" y="-229.3" font-family="Times,serif" font-size="14.00">update</text>
<polyline fill="none" stroke="black" points="-54,-221.5 56,-221.5 "/>
<polyline fill="none" stroke="black" points="-54,-197.5 56,-197.5 "/>
<text text-anchor="start" x="-46" y="-182.3" font-family="Times,serif" font-size="14.00">_layout</text>
<text text-anchor="start" x="-46" y="-167.3" font-family="Times,serif" font-size="14.00">game_params</text>
<text text-anchor="start" x="-46" y="-152.3" font-family="Times,serif" font-size="14.00">set_game</text>
</g>
<!-- CommentsController -->
<g id="node5" class="node"><title>CommentsController</title>
<path fill="none" stroke="black" d="M-60,107.5C-60,107.5 48,107.5 48,107.5 54,107.5 60,101.5 60,95.5 60,95.5 60,-93.5 60,-93.5 60,-99.5 54,-105.5 48,-105.5 48,-105.5 -60,-105.5 -60,-105.5 -66,-105.5 -72,-99.5 -72,-93.5 -72,-93.5 -72,95.5 -72,95.5 -72,101.5 -66,107.5 -60,107.5"/>
<text text-anchor="middle" x="-6" y="-90.3" font-family="Times,serif" font-size="14.00">CommentsController</text>
<polyline fill="none" stroke="black" points="-72,-82.5 60,-82.5 "/>
<text text-anchor="start" x="-64" y="-67.3" font-family="Times,serif" font-size="14.00">create</text>
<text text-anchor="start" x="-64" y="-52.3" font-family="Times,serif" font-size="14.00">destroy</text>
<text text-anchor="start" x="-64" y="-37.3" font-family="Times,serif" font-size="14.00">edit</text>
<text text-anchor="start" x="-64" y="-22.3" font-family="Times,serif" font-size="14.00">index</text>
<text text-anchor="start" x="-64" y="-7.3" font-family="Times,serif" font-size="14.00">new</text>
<text text-anchor="start" x="-64" y="7.7" font-family="Times,serif" font-size="14.00">show</text>
<text text-anchor="start" x="-64" y="22.7" font-family="Times,serif" font-size="14.00">update</text>
<polyline fill="none" stroke="black" points="-72,30.5 60,30.5 "/>
<polyline fill="none" stroke="black" points="-72,54.5 60,54.5 "/>
<text text-anchor="start" x="-64" y="69.7" font-family="Times,serif" font-size="14.00">_layout</text>
<text text-anchor="start" x="-64" y="84.7" font-family="Times,serif" font-size="14.00">comment_params</text>
<text text-anchor="start" x="-64" y="99.7" font-family="Times,serif" font-size="14.00">set_comment</text>
</g>
</g>
</svg>
