<?xml version="1.0" encoding="UTF-8" standalone="no"?>
<!DOCTYPE svg PUBLIC "-//W3C//DTD SVG 1.1//EN"
 "http://www.w3.org/Graphics/SVG/1.1/DTD/svg11.dtd">
<!-- Generated by graphviz version 2.38.0 (20140413.2041)
 -->
<!-- Title: models_diagram Pages: 1 -->
<svg width="477pt" height="230pt"
 viewBox="0.00 0.00 477.34 230.00" xmlns="http://www.w3.org/2000/svg" xmlns:xlink="http://www.w3.org/1999/xlink">
<g id="graph0" class="graph" transform="scale(1 1) rotate(0) translate(4 226)">
<title>models_diagram</title>
<polygon fill="none" stroke="none" points="-4,4 -4,-226 473.343,-226 473.343,4 -4,4"/>
<!-- _diagram_info -->
<g id="node1" class="node"><title>_diagram_info</title>
<text text-anchor="start" x="8" y="-207.6" font-family="Times,serif" font-size="13.00">Models diagram</text>
<text text-anchor="start" x="8" y="-193.6" font-family="Times,serif" font-size="13.00">Date: Oct 08 2018 &#45; 11:42</text>
<text text-anchor="start" x="8" y="-179.6" font-family="Times,serif" font-size="13.00">Migration version: 20181007155038</text>
<text text-anchor="start" x="8" y="-165.6" font-family="Times,serif" font-size="13.00">Generated by RailRoady 1.5.3</text>
<text text-anchor="start" x="8" y="-151.6" font-family="Times,serif" font-size="13.00">http://railroady.prestonlee.com</text>
</g>
<!-- User -->
<g id="node2" class="node"><title>User</title>
<ellipse fill="none" stroke="black" cx="264" cy="-90" rx="27.0966" ry="18"/>
<text text-anchor="middle" x="264" y="-86.3" font-family="Times,serif" font-size="14.00">User</text>
</g>
<!-- Gamelist -->
<g id="node4" class="node"><title>Gamelist</title>
<ellipse fill="none" stroke="black" cx="210" cy="-18" rx="42.7926" ry="18"/>
<text text-anchor="middle" x="210" y="-14.3" font-family="Times,serif" font-size="14.00">Gamelist</text>
</g>
<!-- User&#45;&gt;Gamelist -->
<g id="edge1" class="edge"><title>User&#45;&gt;Gamelist</title>
<path fill="none" stroke="#3120c1" d="M247.065,-67.0469C241.279,-59.5466 234.773,-51.1135 228.846,-43.4303"/>
<ellipse fill="none" stroke="#3120c1" cx="249.572" cy="-70.2976" rx="4.00002" ry="4.00002"/>
<polygon fill="#3120c1" stroke="#3120c1" points="228.811,-43.385 226.266,-32.7185 225.757,-39.4261 222.703,-35.4672 222.703,-35.4672 222.703,-35.4672 225.757,-39.4261 219.14,-38.2158 228.811,-43.385 228.811,-43.385"/>
</g>
<!-- Comment -->
<g id="node5" class="node"><title>Comment</title>
<ellipse fill="none" stroke="black" cx="318" cy="-18" rx="46.2923" ry="18"/>
<text text-anchor="middle" x="318" y="-14.3" font-family="Times,serif" font-size="14.00">Comment</text>
</g>
<!-- User&#45;&gt;Comment -->
<g id="edge2" class="edge"><title>User&#45;&gt;Comment</title>
<path fill="none" stroke="#a24ae4" d="M280.935,-67.0469C286.721,-59.5466 293.227,-51.1135 299.154,-43.4303"/>
<ellipse fill="none" stroke="#a24ae4" cx="278.428" cy="-70.2976" rx="4.00002" ry="4.00002"/>
<polygon fill="#a24ae4" stroke="#a24ae4" points="299.189,-43.385 308.86,-38.2158 302.243,-39.4261 305.297,-35.4672 305.297,-35.4672 305.297,-35.4672 302.243,-39.4261 301.734,-32.7185 299.189,-43.385 299.189,-43.385"/>
</g>
<!-- ApplicationRecord -->
<g id="node3" class="node"><title>ApplicationRecord</title>
<ellipse fill="none" stroke="black" cx="392" cy="-183" rx="77.1866" ry="18"/>
<text text-anchor="middle" x="392" y="-179.3" font-family="Times,serif" font-size="14.00">ApplicationRecord</text>
</g>
<!-- Game -->
<g id="node6" class="node"><title>Game</title>
<ellipse fill="none" stroke="black" cx="264" cy="-183" rx="32.4942" ry="18"/>
<text text-anchor="middle" x="264" y="-179.3" font-family="Times,serif" font-size="14.00">Game</text>
</g>
<!-- Game&#45;&gt;User -->
<g id="edge4" class="edge"><title>Game&#45;&gt;User</title>
<path fill="none" stroke="#7a1b94" d="M264,-154.549C264,-143.083 264,-129.792 264,-118.339"/>
<polygon fill="#7a1b94" stroke="#7a1b94" points="264,-154.884 259.5,-164.884 264,-159.884 264,-164.884 264,-164.884 264,-164.884 264,-159.884 268.5,-164.884 264,-154.884 264,-154.884"/>
<polygon fill="#7a1b94" stroke="#7a1b94" points="264,-118.04 268.5,-108.04 264,-113.04 264,-108.04 264,-108.04 264,-108.04 264,-113.04 259.5,-108.04 264,-118.04 264,-118.04"/>
</g>
<!-- Game&#45;&gt;Gamelist -->
<g id="edge3" class="edge"><title>Game&#45;&gt;Gamelist</title>
<path fill="none" stroke="#036f9a" d="M250.587,-158.355C243.014,-144.139 233.91,-125.471 228,-108 221.15,-87.7476 216.506,-63.975 213.653,-46.096"/>
<ellipse fill="none" stroke="#036f9a" cx="252.699" cy="-162.243" rx="4.00002" ry="4.00002"/>
<polygon fill="#036f9a" stroke="#036f9a" points="213.632,-45.9541 216.591,-35.395 212.886,-41.01 212.141,-36.0659 212.141,-36.0659 212.141,-36.0659 212.886,-41.01 207.691,-36.7367 213.632,-45.9541 213.632,-45.9541"/>
</g>
<!-- Game&#45;&gt;Comment -->
<g id="edge5" class="edge"><title>Game&#45;&gt;Comment</title>
<path fill="none" stroke="#af0111" d="M277.413,-158.355C284.986,-144.139 294.09,-125.471 300,-108 306.85,-87.7476 311.494,-63.975 314.347,-46.096"/>
<ellipse fill="none" stroke="#af0111" cx="275.301" cy="-162.243" rx="4.00002" ry="4.00002"/>
<polygon fill="#af0111" stroke="#af0111" points="314.368,-45.9541 320.309,-36.7367 315.114,-41.01 315.859,-36.0659 315.859,-36.0659 315.859,-36.0659 315.114,-41.01 311.409,-35.395 314.368,-45.9541 314.368,-45.9541"/>
</g>
</g>
</svg>
