<?xml version="1.0" encoding="UTF-8" standalone="no"?>
<!DOCTYPE svg PUBLIC "-//W3C//DTD SVG 1.1//EN"
 "http://www.w3.org/Graphics/SVG/1.1/DTD/svg11.dtd">
<!-- Generated by graphviz version 2.38.0 (20140413.2041)
 -->
<!-- Title: models_diagram Pages: 1 -->
<svg width="544pt" height="461pt"
 viewBox="0.00 0.00 544.34 461.00" xmlns="http://www.w3.org/2000/svg" xmlns:xlink="http://www.w3.org/1999/xlink">
<g id="graph0" class="graph" transform="scale(1 1) rotate(0) translate(4 457)">
<title>models_diagram</title>
<polygon fill="none" stroke="none" points="-4,4 -4,-457 540.343,-457 540.343,4 -4,4"/>
<!-- _diagram_info -->
<g id="node1" class="node"><title>_diagram_info</title>
<text text-anchor="start" x="8" y="-409.1" font-family="Times,serif" font-size="13.00">Models diagram</text>
<text text-anchor="start" x="8" y="-395.1" font-family="Times,serif" font-size="13.00">Date: Oct 08 2018 &#45; 11:42</text>
<text text-anchor="start" x="8" y="-381.1" font-family="Times,serif" font-size="13.00">Migration version: 20181007155038</text>
<text text-anchor="start" x="8" y="-367.1" font-family="Times,serif" font-size="13.00">Generated by RailRoady 1.5.3</text>
<text text-anchor="start" x="8" y="-353.1" font-family="Times,serif" font-size="13.00">http://railroady.prestonlee.com</text>
</g>
<!-- User -->
<g id="node2" class="node"><title>User</title>
<path fill="none" stroke="black" d="M210,-128.5C210,-128.5 386,-128.5 386,-128.5 392,-128.5 398,-134.5 398,-140.5 398,-140.5 398,-267.5 398,-267.5 398,-273.5 392,-279.5 386,-279.5 386,-279.5 210,-279.5 210,-279.5 204,-279.5 198,-273.5 198,-267.5 198,-267.5 198,-140.5 198,-140.5 198,-134.5 204,-128.5 210,-128.5"/>
<text text-anchor="middle" x="298" y="-264.3" font-family="Times,serif" font-size="14.00">User</text>
<polyline fill="none" stroke="black" points="198,-256.5 398,-256.5 "/>
<text text-anchor="start" x="206" y="-241.3" font-family="Times,serif" font-size="14.00">id :integer</text>
<text text-anchor="start" x="206" y="-226.3" font-family="Times,serif" font-size="14.00">email :varchar</text>
<text text-anchor="start" x="206" y="-211.3" font-family="Times,serif" font-size="14.00">encrypted_password :varchar</text>
<text text-anchor="start" x="206" y="-196.3" font-family="Times,serif" font-size="14.00">reset_password_token :varchar</text>
<text text-anchor="start" x="206" y="-181.3" font-family="Times,serif" font-size="14.00">reset_password_sent_at :datetime</text>
<text text-anchor="start" x="206" y="-166.3" font-family="Times,serif" font-size="14.00">remember_created_at :datetime</text>
<text text-anchor="start" x="206" y="-151.3" font-family="Times,serif" font-size="14.00">created_at :datetime</text>
<text text-anchor="start" x="206" y="-136.3" font-family="Times,serif" font-size="14.00">updated_at :datetime</text>
</g>
<!-- Gamelist -->
<g id="node4" class="node"><title>Gamelist</title>
<path fill="none" stroke="black" d="M127.5,-0.5C127.5,-0.5 212.5,-0.5 212.5,-0.5 218.5,-0.5 224.5,-6.5 224.5,-12.5 224.5,-12.5 224.5,-79.5 224.5,-79.5 224.5,-85.5 218.5,-91.5 212.5,-91.5 212.5,-91.5 127.5,-91.5 127.5,-91.5 121.5,-91.5 115.5,-85.5 115.5,-79.5 115.5,-79.5 115.5,-12.5 115.5,-12.5 115.5,-6.5 121.5,-0.5 127.5,-0.5"/>
<text text-anchor="middle" x="170" y="-76.3" font-family="Times,serif" font-size="14.00">Gamelist</text>
<polyline fill="none" stroke="black" points="115.5,-68.5 224.5,-68.5 "/>
<text text-anchor="start" x="123.5" y="-53.3" font-family="Times,serif" font-size="14.00">id :integer</text>
<text text-anchor="start" x="123.5" y="-38.3" font-family="Times,serif" font-size="14.00">status :varchar</text>
<text text-anchor="start" x="123.5" y="-23.3" font-family="Times,serif" font-size="14.00">user_id :integer</text>
<text text-anchor="start" x="123.5" y="-8.3" font-family="Times,serif" font-size="14.00">game_id :integer</text>
</g>
<!-- User&#45;&gt;Gamelist -->
<g id="edge1" class="edge"><title>User&#45;&gt;Gamelist</title>
<path fill="none" stroke="#67dee3" d="M231.328,-121.744C225.218,-114.297 219.141,-106.89 213.319,-99.7948"/>
<ellipse fill="none" stroke="#67dee3" cx="234.087" cy="-125.106" rx="4.00002" ry="4.00002"/>
<polygon fill="#67dee3" stroke="#67dee3" points="212.959,-99.3558 210.094,-88.7706 209.787,-95.4904 206.615,-91.625 206.615,-91.625 206.615,-91.625 209.787,-95.4904 203.137,-94.4795 212.959,-99.3558 212.959,-99.3558"/>
</g>
<!-- Comment -->
<g id="node5" class="node"><title>Comment</title>
<path fill="none" stroke="black" d="M319.5,-0.5C319.5,-0.5 404.5,-0.5 404.5,-0.5 410.5,-0.5 416.5,-6.5 416.5,-12.5 416.5,-12.5 416.5,-79.5 416.5,-79.5 416.5,-85.5 410.5,-91.5 404.5,-91.5 404.5,-91.5 319.5,-91.5 319.5,-91.5 313.5,-91.5 307.5,-85.5 307.5,-79.5 307.5,-79.5 307.5,-12.5 307.5,-12.5 307.5,-6.5 313.5,-0.5 319.5,-0.5"/>
<text text-anchor="middle" x="362" y="-76.3" font-family="Times,serif" font-size="14.00">Comment</text>
<polyline fill="none" stroke="black" points="307.5,-68.5 416.5,-68.5 "/>
<text text-anchor="start" x="315.5" y="-53.3" font-family="Times,serif" font-size="14.00">id :integer</text>
<text text-anchor="start" x="315.5" y="-38.3" font-family="Times,serif" font-size="14.00">game_id :integer</text>
<text text-anchor="start" x="315.5" y="-23.3" font-family="Times,serif" font-size="14.00">user_id :integer</text>
<text text-anchor="start" x="315.5" y="-8.3" font-family="Times,serif" font-size="14.00">body :text</text>
</g>
<!-- User&#45;&gt;Comment -->
<g id="edge2" class="edge"><title>User&#45;&gt;Comment</title>
<path fill="none" stroke="#d9b246" d="M331.817,-120.572C334.499,-114.033 337.165,-107.536 339.737,-101.266"/>
<ellipse fill="none" stroke="#d9b246" cx="330.206" cy="-124.498" rx="4.00001" ry="4.00001"/>
<polygon fill="#d9b246" stroke="#d9b246" points="339.897,-100.877 347.856,-93.333 341.794,-96.2509 343.692,-91.625 343.692,-91.625 343.692,-91.625 341.794,-96.2509 339.529,-89.917 339.897,-100.877 339.897,-100.877"/>
</g>
<!-- ApplicationRecord -->
<g id="node3" class="node"><title>ApplicationRecord</title>
<ellipse fill="none" stroke="black" cx="459" cy="-384.5" rx="77.1866" ry="18"/>
<text text-anchor="middle" x="459" y="-380.8" font-family="Times,serif" font-size="14.00">ApplicationRecord</text>
</g>
<!-- Game -->
<g id="node6" class="node"><title>Game</title>
<path fill="none" stroke="black" d="M244.5,-316.5C244.5,-316.5 351.5,-316.5 351.5,-316.5 357.5,-316.5 363.5,-322.5 363.5,-328.5 363.5,-328.5 363.5,-440.5 363.5,-440.5 363.5,-446.5 357.5,-452.5 351.5,-452.5 351.5,-452.5 244.5,-452.5 244.5,-452.5 238.5,-452.5 232.5,-446.5 232.5,-440.5 232.5,-440.5 232.5,-328.5 232.5,-328.5 232.5,-322.5 238.5,-316.5 244.5,-316.5"/>
<text text-anchor="middle" x="298" y="-437.3" font-family="Times,serif" font-size="14.00">Game</text>
<polyline fill="none" stroke="black" points="232.5,-429.5 363.5,-429.5 "/>
<text text-anchor="start" x="240.5" y="-414.3" font-family="Times,serif" font-size="14.00">id :integer</text>
<text text-anchor="start" x="240.5" y="-399.3" font-family="Times,serif" font-size="14.00">titulo :varchar</text>
<text text-anchor="start" x="240.5" y="-384.3" font-family="Times,serif" font-size="14.00">sinopsis :varchar</text>
<text text-anchor="start" x="240.5" y="-369.3" font-family="Times,serif" font-size="14.00">lanzamiento :date</text>
<text text-anchor="start" x="240.5" y="-354.3" font-family="Times,serif" font-size="14.00">image_url :varchar</text>
<text text-anchor="start" x="240.5" y="-339.3" font-family="Times,serif" font-size="14.00">created_at :datetime</text>
<text text-anchor="start" x="240.5" y="-324.3" font-family="Times,serif" font-size="14.00">updated_at :datetime</text>
</g>
<!-- Game&#45;&gt;User -->
<g id="edge4" class="edge"><title>Game&#45;&gt;User</title>
<path fill="none" stroke="#5c8918" d="M298,-306.069C298,-300.725 298,-295.324 298,-289.943"/>
<polygon fill="#5c8918" stroke="#5c8918" points="298,-306.271 293.5,-316.271 298,-311.271 298,-316.271 298,-316.271 298,-316.271 298,-311.271 302.5,-316.271 298,-306.271 298,-306.271"/>
<polygon fill="#5c8918" stroke="#5c8918" points="298,-289.643 302.5,-279.643 298,-284.643 298,-279.643 298,-279.643 298,-279.643 298,-284.643 293.5,-279.643 298,-289.643 298,-289.643"/>
</g>
<!-- Game&#45;&gt;Gamelist -->
<g id="edge3" class="edge"><title>Game&#45;&gt;Gamelist</title>
<path fill="none" stroke="#4c5d2b" d="M226.425,-319.152C207.577,-301.487 191.692,-285.626 189,-280 162.095,-223.776 160.633,-151.156 163.77,-102.047"/>
<ellipse fill="none" stroke="#4c5d2b" cx="229.432" cy="-321.955" rx="4.00002" ry="4.00002"/>
<polygon fill="#4c5d2b" stroke="#4c5d2b" points="163.78,-101.913 168.99,-92.2638 164.141,-96.9259 164.502,-91.9389 164.502,-91.9389 164.502,-91.9389 164.141,-96.9259 160.014,-91.614 163.78,-101.913 163.78,-101.913"/>
</g>
<!-- Game&#45;&gt;Comment -->
<g id="edge5" class="edge"><title>Game&#45;&gt;Comment</title>
<path fill="none" stroke="#46c800" d="M369.69,-317.414C389.371,-298.889 405.735,-282.946 407,-280 433.658,-217.927 423.946,-193.396 407,-128 404.604,-118.754 400.899,-109.439 396.621,-100.586"/>
<ellipse fill="none" stroke="#46c800" cx="366.692" cy="-320.228" rx="4.00002" ry="4.00002"/>
<polygon fill="#46c800" stroke="#46c800" points="396.549,-100.446 395.99,-89.4946 394.267,-95.9972 391.985,-91.5482 391.985,-91.5482 391.985,-91.5482 394.267,-95.9972 387.981,-93.6018 396.549,-100.446 396.549,-100.446"/>
</g>
</g>
</svg>
